<?xml version="1.0" encoding="utf-8"?>
<!-- Generator: Adobe Illustrator 23.0.3, SVG Export Plug-In . SVG Version: 6.00 Build 0)  -->
<svg version="1.1" id="Capa_1" xmlns="http://www.w3.org/2000/svg" xmlns:xlink="http://www.w3.org/1999/xlink" x="0px" y="0px"
	 viewBox="0 0 85.04 17.34" style="enable-background:new 0 0 85.04 17.34;" xml:space="preserve">
<style type="text/css">
	.st0{fill:#199051;}
	.st1{fill:#B3D34F;}
	.st2{fill:#105336;}
	.st3{fill:#616469;}
	.st4{fill:#A8AEB3;}
</style>
<g>
	<path class="st0" d="M11.37,17.34C8.45,17.34,0,14.98,0,12.06c0-2.92,8.45-5.28,11.37-5.28c2.92,0,5.28,2.37,5.28,5.28
		C16.66,14.98,14.29,17.34,11.37,17.34"/>
	<path class="st1" d="M8.77,8.76C6.87,7.61,2.3,2.73,3.46,0.83c1.15-1.9,7.59-0.1,9.49,1.06c1.9,1.15,2.51,3.62,1.35,5.53
		C13.14,9.31,10.67,9.92,8.77,8.76"/>
	<path class="st2" d="M7.18,7.49c0.61,0.56,1.17,1.02,1.6,1.28c1.84,1.12,4.22,0.58,5.42-1.18c-0.82-0.51-1.77-0.82-2.8-0.82
		C10.43,6.78,8.86,7.04,7.18,7.49"/>
	<path class="st3" d="M23.9,7.75c0.19,0.08,0.36,0.18,0.51,0.3c0.14,0.13,0.26,0.27,0.35,0.43c0.09,0.16,0.16,0.33,0.2,0.51
		c0.04,0.18,0.07,0.36,0.07,0.55c0,0.33-0.06,0.62-0.19,0.89c-0.13,0.27-0.3,0.5-0.52,0.69c-0.22,0.19-0.47,0.34-0.77,0.45
		c-0.29,0.1-0.61,0.16-0.95,0.16h-2.53c-0.22,0-0.37-0.05-0.46-0.14c-0.08-0.09-0.12-0.24-0.12-0.45V5.06c0-0.2,0.04-0.35,0.12-0.45
		c0.08-0.1,0.23-0.14,0.46-0.14l2.41-0.01c0.32,0,0.61,0.03,0.89,0.1c0.28,0.07,0.51,0.18,0.71,0.32c0.2,0.15,0.35,0.33,0.47,0.56
		c0.11,0.23,0.17,0.5,0.17,0.82c0,0.31-0.08,0.59-0.23,0.84c-0.16,0.25-0.35,0.44-0.59,0.58V7.75z M20.76,7.29h1.68
		c0.1,0,0.2-0.01,0.32-0.04c0.11-0.02,0.22-0.07,0.32-0.13c0.1-0.07,0.18-0.16,0.24-0.27c0.06-0.11,0.09-0.26,0.09-0.45
		c0-0.25-0.08-0.45-0.24-0.59C23,5.66,22.78,5.59,22.5,5.59h-1.74V7.29z M23.73,9.46c0-0.33-0.11-0.6-0.32-0.81
		c-0.21-0.21-0.52-0.32-0.93-0.32h-1.72v2.26h1.71c0.25,0,0.45-0.04,0.61-0.11c0.16-0.07,0.29-0.16,0.38-0.27
		c0.1-0.11,0.16-0.23,0.2-0.37C23.71,9.71,23.73,9.58,23.73,9.46"/>
	<path class="st3" d="M29.87,11.14c0,0.17-0.07,0.28-0.2,0.34c-0.15,0.07-0.32,0.13-0.49,0.18c-0.18,0.05-0.36,0.09-0.54,0.11
		c-0.19,0.03-0.37,0.05-0.55,0.06c-0.18,0.01-0.36,0.02-0.52,0.02c-0.46,0-0.83-0.05-1.14-0.14c-0.3-0.09-0.54-0.22-0.71-0.37
		c-0.18-0.16-0.3-0.34-0.37-0.55c-0.07-0.21-0.1-0.43-0.1-0.67c0-0.24,0.04-0.48,0.12-0.7S25.57,9,25.75,8.83
		c0.18-0.17,0.41-0.31,0.7-0.41c0.29-0.1,0.64-0.16,1.05-0.16h1.16V8.08c0-0.13-0.01-0.25-0.04-0.36c-0.03-0.11-0.08-0.21-0.16-0.29
		c-0.08-0.08-0.19-0.15-0.33-0.19c-0.14-0.04-0.32-0.07-0.54-0.07c-0.23,0-0.49,0.02-0.77,0.06c-0.28,0.04-0.5,0.09-0.67,0.14
		c-0.08,0.02-0.13,0.02-0.17,0.01c-0.03-0.01-0.06-0.05-0.07-0.11l-0.14-0.59c-0.03-0.11,0-0.18,0.09-0.22
		c0.29-0.11,0.61-0.19,0.95-0.23c0.35-0.04,0.67-0.07,0.97-0.07c0.72,0,1.25,0.16,1.58,0.48c0.33,0.32,0.5,0.78,0.5,1.39V11.14z
		 M28.65,9.18h-1c-0.12,0-0.24,0.01-0.38,0.02c-0.13,0.01-0.26,0.05-0.38,0.11c-0.12,0.06-0.22,0.15-0.3,0.27
		c-0.08,0.12-0.12,0.28-0.12,0.49c0,0.3,0.1,0.5,0.3,0.62c0.2,0.12,0.47,0.18,0.8,0.18c0.05,0,0.12,0,0.2-0.01
		c0.09,0,0.18-0.01,0.27-0.03c0.1-0.01,0.2-0.03,0.31-0.05c0.11-0.02,0.2-0.05,0.29-0.08V9.18z"/>
	<path class="st3" d="M32.62,7.2c-0.08,0-0.18,0-0.33,0c-0.14,0-0.31,0.02-0.49,0.06v4.29c0,0.08-0.01,0.12-0.04,0.15
		c-0.03,0.02-0.08,0.03-0.16,0.03H30.8c-0.07,0-0.12-0.01-0.15-0.03c-0.03-0.02-0.05-0.07-0.05-0.15V7.12
		c0-0.25,0.04-0.44,0.13-0.58c0.09-0.14,0.28-0.23,0.56-0.28c0.07-0.01,0.16-0.02,0.28-0.03c0.12-0.01,0.24-0.02,0.37-0.03
		c0.13-0.01,0.26-0.01,0.38-0.02c0.12-0.01,0.23-0.01,0.32-0.01c0.46,0,0.85,0.05,1.18,0.14c0.34,0.1,0.61,0.25,0.83,0.46
		c0.22,0.21,0.38,0.49,0.48,0.83c0.1,0.34,0.16,0.75,0.16,1.22v2.74c0,0.08-0.01,0.12-0.04,0.15c-0.03,0.02-0.08,0.03-0.15,0.03
		h-0.81c-0.07,0-0.12-0.01-0.15-0.03c-0.03-0.02-0.04-0.07-0.04-0.15V8.8c0-0.27-0.02-0.5-0.07-0.7c-0.05-0.2-0.12-0.37-0.23-0.5
		c-0.11-0.13-0.26-0.23-0.45-0.3C33.15,7.24,32.91,7.2,32.62,7.2"/>
	<path class="st3" d="M38.41,10.79c0.22,0,0.44-0.03,0.66-0.08c0.22-0.05,0.4-0.12,0.55-0.19c0.08-0.04,0.13-0.04,0.16-0.03
		c0.03,0.01,0.06,0.05,0.08,0.1l0.26,0.6c0.07,0.11,0.05,0.2-0.06,0.26c-0.28,0.16-0.59,0.26-0.92,0.32
		c-0.33,0.05-0.63,0.08-0.92,0.08c-0.77,0-1.37-0.24-1.78-0.71c-0.41-0.47-0.62-1.17-0.62-2.09c0-0.44,0.06-0.83,0.18-1.19
		c0.12-0.36,0.28-0.66,0.5-0.91c0.22-0.25,0.48-0.45,0.79-0.58c0.31-0.13,0.65-0.2,1.04-0.2c0.28,0,0.56,0.03,0.82,0.09
		c0.27,0.06,0.52,0.15,0.75,0.27c0.06,0.04,0.1,0.07,0.11,0.11c0.01,0.03,0,0.09-0.03,0.16L39.73,7.4c-0.03,0.06-0.06,0.09-0.09,0.1
		c-0.03,0.02-0.09,0-0.17-0.03c-0.17-0.06-0.34-0.12-0.52-0.16c-0.18-0.04-0.37-0.07-0.57-0.07c-0.23,0-0.44,0.05-0.61,0.15
		c-0.17,0.1-0.31,0.23-0.42,0.4c-0.11,0.17-0.18,0.36-0.23,0.58c-0.05,0.22-0.07,0.44-0.07,0.68c0,0.24,0.02,0.47,0.06,0.68
		c0.04,0.21,0.11,0.4,0.21,0.56c0.1,0.16,0.24,0.28,0.41,0.37C37.92,10.75,38.14,10.79,38.41,10.79"/>
	<path class="st3" d="M45.34,8.99c0,0.92-0.21,1.62-0.64,2.12c-0.42,0.49-1.06,0.74-1.9,0.74c-0.84,0-1.46-0.24-1.87-0.72
		c-0.41-0.48-0.62-1.18-0.62-2.11c0-0.46,0.06-0.86,0.19-1.21c0.12-0.35,0.3-0.65,0.52-0.89c0.22-0.24,0.48-0.43,0.79-0.55
		c0.31-0.13,0.65-0.19,1.02-0.19c0.82,0,1.45,0.25,1.87,0.75C45.13,7.42,45.34,8.11,45.34,8.99 M44.11,9.02
		c0-0.25-0.02-0.49-0.06-0.71c-0.04-0.22-0.1-0.42-0.2-0.59c-0.09-0.17-0.22-0.3-0.38-0.4c-0.16-0.1-0.37-0.15-0.62-0.15
		c-0.22,0-0.42,0.05-0.58,0.14c-0.17,0.09-0.3,0.22-0.42,0.38c-0.11,0.16-0.19,0.35-0.24,0.57c-0.05,0.22-0.08,0.46-0.08,0.72
		c0,0.58,0.09,1.03,0.28,1.36c0.19,0.33,0.52,0.5,1,0.5c0.24,0,0.45-0.05,0.61-0.15c0.17-0.1,0.3-0.24,0.4-0.4
		c0.1-0.17,0.17-0.36,0.22-0.58C44.08,9.49,44.11,9.26,44.11,9.02"/>
	<path class="st4" d="M56.13,11.06c0,0.16-0.07,0.28-0.2,0.34c-0.15,0.07-0.32,0.13-0.49,0.18c-0.18,0.05-0.36,0.09-0.55,0.11
		c-0.19,0.03-0.37,0.05-0.56,0.06c-0.19,0.01-0.36,0.01-0.53,0.01c-0.46,0-0.84-0.04-1.15-0.14c-0.3-0.09-0.54-0.22-0.72-0.38
		c-0.17-0.16-0.3-0.34-0.37-0.56c-0.07-0.21-0.1-0.44-0.1-0.67c0-0.25,0.04-0.48,0.12-0.71c0.08-0.23,0.21-0.43,0.39-0.6
		c0.19-0.17,0.42-0.31,0.71-0.41c0.29-0.11,0.64-0.16,1.06-0.16h1.17V7.97c0-0.13-0.02-0.25-0.04-0.37
		c-0.03-0.11-0.08-0.21-0.16-0.29c-0.08-0.08-0.19-0.15-0.33-0.19c-0.14-0.05-0.32-0.07-0.55-0.07c-0.24,0-0.49,0.02-0.77,0.07
		c-0.28,0.04-0.5,0.09-0.68,0.14c-0.07,0.02-0.13,0.02-0.16,0.01c-0.04-0.01-0.06-0.05-0.07-0.12L52,6.56
		c-0.03-0.11,0-0.19,0.09-0.22c0.29-0.11,0.61-0.19,0.96-0.24c0.35-0.04,0.67-0.07,0.98-0.07c0.73,0,1.26,0.16,1.59,0.48
		c0.34,0.32,0.51,0.79,0.51,1.4V11.06z M54.9,9.08h-1c-0.12,0-0.24,0-0.38,0.02c-0.14,0.01-0.27,0.05-0.39,0.11
		c-0.12,0.07-0.22,0.15-0.3,0.27c-0.08,0.12-0.12,0.29-0.12,0.49c0,0.3,0.1,0.51,0.3,0.63c0.2,0.12,0.47,0.18,0.8,0.18
		c0.05,0,0.12,0,0.2-0.01c0.09,0,0.18-0.01,0.28-0.03c0.1-0.01,0.2-0.03,0.31-0.05c0.11-0.02,0.21-0.05,0.3-0.08V9.08z"/>
	<path class="st4" d="M63.94,11.06c0,0.16-0.07,0.28-0.2,0.34c-0.15,0.07-0.32,0.13-0.49,0.18c-0.18,0.05-0.36,0.09-0.55,0.11
		c-0.19,0.03-0.37,0.05-0.56,0.06c-0.19,0.01-0.36,0.01-0.53,0.01c-0.46,0-0.84-0.04-1.14-0.14c-0.31-0.09-0.54-0.22-0.72-0.38
		c-0.18-0.16-0.3-0.34-0.37-0.56c-0.07-0.21-0.11-0.44-0.11-0.67c0-0.25,0.04-0.48,0.12-0.71c0.08-0.23,0.21-0.43,0.39-0.6
		c0.18-0.17,0.42-0.31,0.71-0.41c0.29-0.11,0.64-0.16,1.06-0.16h1.17V7.97c0-0.13-0.01-0.25-0.04-0.37
		c-0.03-0.11-0.08-0.21-0.16-0.29c-0.08-0.08-0.19-0.15-0.33-0.19c-0.14-0.05-0.32-0.07-0.54-0.07c-0.24,0-0.5,0.02-0.77,0.07
		c-0.28,0.04-0.5,0.09-0.68,0.14c-0.08,0.02-0.13,0.02-0.16,0.01c-0.04-0.01-0.06-0.05-0.08-0.12L59.8,6.56
		c-0.03-0.11,0-0.19,0.09-0.22c0.29-0.11,0.62-0.19,0.96-0.24c0.35-0.04,0.68-0.07,0.98-0.07c0.73,0,1.26,0.16,1.59,0.48
		c0.34,0.32,0.51,0.79,0.51,1.4V11.06z M62.7,9.08h-1c-0.12,0-0.25,0-0.38,0.02c-0.14,0.01-0.26,0.05-0.39,0.11
		c-0.12,0.07-0.22,0.15-0.3,0.27c-0.08,0.12-0.12,0.29-0.12,0.49c0,0.3,0.1,0.51,0.3,0.63c0.2,0.12,0.47,0.18,0.81,0.18
		c0.05,0,0.11,0,0.2-0.01c0.08,0,0.18-0.01,0.28-0.03c0.1-0.01,0.2-0.03,0.31-0.05c0.11-0.02,0.21-0.05,0.3-0.08V9.08z"/>
	<path class="st4" d="M72.46,6.04c0.8,0,1.4,0.21,1.78,0.62c0.38,0.41,0.58,0.97,0.58,1.69c0,0.18-0.02,0.33-0.06,0.45
		c-0.04,0.12-0.1,0.21-0.18,0.28c-0.07,0.07-0.17,0.12-0.27,0.15c-0.1,0.03-0.21,0.04-0.33,0.04h-2.78c0.01,0.27,0.04,0.5,0.12,0.68
		c0.08,0.19,0.18,0.33,0.31,0.45c0.13,0.11,0.29,0.2,0.46,0.25c0.18,0.05,0.37,0.07,0.57,0.07c0.22,0,0.44-0.03,0.66-0.08
		c0.21-0.05,0.41-0.12,0.56-0.2c0.11-0.04,0.19-0.03,0.23,0.06l0.28,0.59c0.05,0.11,0.02,0.19-0.07,0.24
		c-0.26,0.16-0.55,0.27-0.87,0.33c-0.31,0.06-0.61,0.09-0.9,0.09c-0.84,0-1.49-0.23-1.93-0.68c-0.45-0.45-0.67-1.17-0.67-2.15
		c0-0.46,0.06-0.87,0.19-1.23c0.12-0.36,0.3-0.67,0.51-0.91c0.22-0.25,0.48-0.44,0.79-0.56C71.76,6.1,72.1,6.04,72.46,6.04
		 M72.48,7.05c-0.19,0-0.35,0.04-0.5,0.11c-0.15,0.08-0.27,0.18-0.38,0.3c-0.1,0.13-0.19,0.27-0.25,0.43
		c-0.06,0.16-0.1,0.33-0.1,0.5h2.4c0-0.19-0.02-0.36-0.05-0.52c-0.03-0.16-0.09-0.3-0.18-0.42c-0.09-0.12-0.21-0.22-0.35-0.29
		C72.91,7.09,72.72,7.05,72.48,7.05"/>
	<path class="st4" d="M85.04,11.06c0,0.16-0.07,0.28-0.2,0.34c-0.15,0.07-0.31,0.13-0.49,0.18c-0.18,0.05-0.36,0.09-0.55,0.11
		c-0.19,0.03-0.38,0.05-0.56,0.06c-0.19,0.01-0.36,0.01-0.53,0.01c-0.46,0-0.84-0.04-1.14-0.14c-0.3-0.09-0.54-0.22-0.72-0.38
		c-0.17-0.16-0.3-0.34-0.37-0.56c-0.07-0.21-0.1-0.44-0.1-0.67c0-0.25,0.04-0.48,0.12-0.71c0.08-0.23,0.21-0.43,0.39-0.6
		c0.18-0.17,0.42-0.31,0.71-0.41c0.29-0.11,0.64-0.16,1.06-0.16h1.17V7.97c0-0.13-0.01-0.25-0.04-0.37
		c-0.03-0.11-0.08-0.21-0.16-0.29c-0.08-0.08-0.19-0.15-0.33-0.19c-0.14-0.05-0.32-0.07-0.54-0.07c-0.24,0-0.5,0.02-0.78,0.07
		c-0.27,0.04-0.5,0.09-0.67,0.14c-0.08,0.02-0.13,0.02-0.17,0.01c-0.04-0.01-0.06-0.05-0.07-0.12L80.9,6.56
		c-0.03-0.11,0-0.19,0.1-0.22c0.29-0.11,0.61-0.19,0.96-0.24c0.35-0.04,0.68-0.07,0.98-0.07c0.73,0,1.26,0.16,1.6,0.48
		c0.33,0.32,0.51,0.79,0.51,1.4V11.06z M83.81,9.08H82.8c-0.12,0-0.24,0-0.38,0.02c-0.13,0.01-0.26,0.05-0.39,0.11
		c-0.12,0.07-0.22,0.15-0.3,0.27c-0.08,0.12-0.12,0.29-0.12,0.49c0,0.3,0.1,0.51,0.3,0.63c0.2,0.12,0.47,0.18,0.81,0.18
		c0.05,0,0.12,0,0.2-0.01c0.09,0,0.18-0.01,0.28-0.03c0.1-0.01,0.2-0.03,0.31-0.05c0.11-0.02,0.21-0.05,0.3-0.08V9.08z"/>
	<path class="st4" d="M51.67,4.38c-0.03-0.04-0.08-0.05-0.18-0.05h-2.94c-0.35,0-0.65,0.05-0.89,0.16c-0.24,0.1-0.43,0.24-0.57,0.41
		c-0.15,0.18-0.25,0.38-0.31,0.6c-0.06,0.22-0.09,0.46-0.09,0.71v5.23c0,0.09,0.02,0.15,0.06,0.18c0.04,0.03,0.1,0.04,0.18,0.04
		h0.33c0.23-0.02,0.7-0.13,0.7-0.81V8.43h3.13c0.1,0,0.15-0.02,0.17-0.06c0.03-0.04,0.04-0.1,0.04-0.18V7.6
		c0-0.1-0.01-0.16-0.04-0.19c-0.02-0.03-0.08-0.05-0.17-0.05h-3.13V6.13c0-0.22,0.05-0.39,0.17-0.51c0.1-0.12,0.29-0.17,0.55-0.17
		h2.8c0.09,0,0.15-0.02,0.18-0.06c0.03-0.03,0.04-0.09,0.04-0.19V4.57C51.71,4.48,51.7,4.42,51.67,4.38"/>
	<path class="st4" d="M69.39,7.73c-0.09-0.35-0.24-0.65-0.43-0.9c-0.19-0.25-0.44-0.45-0.74-0.58c-0.3-0.14-0.66-0.21-1.08-0.21
		c-0.19,0-0.4,0.02-0.64,0.04c-0.24,0.03-0.46,0.08-0.67,0.14L65.82,4.2c0-0.08-0.01-0.14-0.04-0.16c-0.03-0.02-0.08-0.03-0.16-0.03
		H65.3c-0.23,0.02-0.67,0.14-0.69,0.79v6.34c0,0.06,0.01,0.11,0.03,0.15c0.02,0.04,0.06,0.07,0.12,0.09
		c0.31,0.15,0.66,0.24,1.03,0.29c0.38,0.06,0.74,0.09,1.1,0.09c0.46,0,0.86-0.07,1.19-0.22c0.33-0.15,0.61-0.35,0.82-0.61
		c0.21-0.26,0.38-0.57,0.47-0.93c0.1-0.35,0.15-0.74,0.15-1.16C69.53,8.45,69.49,8.07,69.39,7.73 M68.18,9.75
		c-0.07,0.23-0.17,0.42-0.29,0.57c-0.13,0.15-0.28,0.25-0.46,0.32c-0.18,0.07-0.38,0.1-0.59,0.1c-0.14,0-0.3-0.01-0.48-0.03
		c-0.18-0.02-0.35-0.05-0.52-0.11V7.25c0.22-0.07,0.44-0.11,0.64-0.13c0.21-0.02,0.36-0.04,0.47-0.04c0.42,0,0.75,0.15,0.99,0.45
		c0.24,0.3,0.35,0.75,0.35,1.37C68.28,9.24,68.25,9.52,68.18,9.75"/>
	<path class="st4" d="M77.51,11.4l-0.07-0.59c-0.01-0.06-0.02-0.09-0.05-0.11c-0.02-0.01-0.06-0.02-0.12-0.01
		c-0.05,0.01-0.11,0.01-0.18,0.02c-0.07,0.01-0.14,0.01-0.19,0.01c-0.14,0-0.24-0.03-0.28-0.1c-0.05-0.06-0.07-0.19-0.07-0.37V4.19
		c0-0.08-0.02-0.13-0.05-0.15c-0.03-0.02-0.08-0.03-0.16-0.03H76c-0.23,0.02-0.66,0.14-0.69,0.76v5.77c0,0.45,0.09,0.77,0.28,0.95
		c0.18,0.18,0.46,0.27,0.86,0.27c0.14,0,0.29-0.01,0.47-0.03c0.18-0.02,0.34-0.05,0.48-0.11c0.07-0.04,0.11-0.07,0.12-0.09
		C77.53,11.52,77.53,11.47,77.51,11.4"/>
	<path class="st4" d="M80.19,11.4l-0.07-0.59c-0.01-0.06-0.02-0.09-0.05-0.11c-0.02-0.01-0.07-0.02-0.12-0.01
		c-0.05,0.01-0.11,0.01-0.19,0.02c-0.07,0.01-0.14,0.01-0.19,0.01c-0.14,0-0.24-0.03-0.28-0.1c-0.05-0.06-0.07-0.19-0.07-0.37V4.19
		c0-0.08-0.02-0.13-0.05-0.15c-0.03-0.02-0.08-0.03-0.16-0.03h-0.33c-0.23,0.02-0.68,0.14-0.69,0.8v5.73c0,0.45,0.09,0.77,0.27,0.95
		c0.18,0.18,0.47,0.27,0.86,0.27c0.14,0,0.3-0.01,0.48-0.03c0.17-0.02,0.33-0.05,0.48-0.11c0.07-0.04,0.11-0.07,0.12-0.09
		C80.21,11.52,80.21,11.47,80.19,11.4"/>
	<path class="st4" d="M59.11,11.4l-0.07-0.59c-0.01-0.06-0.02-0.09-0.05-0.11c-0.02-0.01-0.07-0.02-0.12-0.01
		c-0.05,0.01-0.11,0.01-0.18,0.02c-0.08,0.01-0.14,0.01-0.19,0.01c-0.14,0-0.23-0.03-0.28-0.1c-0.05-0.06-0.08-0.19-0.08-0.37V4.19
		c0-0.08-0.01-0.13-0.04-0.15c-0.04-0.02-0.08-0.03-0.16-0.03h-0.34c-0.23,0.02-0.68,0.14-0.69,0.81v5.72
		c0,0.45,0.09,0.77,0.27,0.95c0.18,0.18,0.46,0.27,0.86,0.27c0.14,0,0.3-0.01,0.48-0.03c0.17-0.02,0.33-0.05,0.47-0.11
		c0.07-0.04,0.11-0.07,0.13-0.09C59.12,11.52,59.12,11.47,59.11,11.4"/>
</g>
</svg>
