<?xml version="1.0" encoding="utf-8"?>
<!-- Generator: Adobe Illustrator 23.0.3, SVG Export Plug-In . SVG Version: 6.00 Build 0)  -->
<svg version="1.1" id="Layer_1" xmlns="http://www.w3.org/2000/svg" xmlns:xlink="http://www.w3.org/1999/xlink" x="0px" y="0px"
	 viewBox="0 0 399 79" style="enable-background:new 0 0 399 79;" xml:space="preserve">
<style type="text/css">
	.st0{fill:#007934;}
	.st1{fill:#C2D500;}
	.st2{fill:#124734;}
	.st3{fill:#53575A;}
	.st4{fill:#9EA1A2;}
</style>
<g>
	<path class="st0" d="M52.06,79.1c-13.29,0-51.76-10.72-51.76-23.98c0-13.23,38.47-23.96,51.76-23.96
		c13.27,0,24.03,10.73,24.03,23.96C76.1,68.37,65.34,79.1,52.06,79.1"/>
	<path class="st1" d="M40.21,40.16c-8.64-5.23-29.43-27.38-24.18-35.99c5.25-8.62,34.54-0.45,43.18,4.8
		c8.64,5.22,11.41,16.45,6.15,25.07C60.11,42.66,48.86,45.41,40.21,40.16"/>
	<path class="st2" d="M32.91,34.37c2.76,2.54,5.34,4.62,7.3,5.8c8.39,5.09,19.19,2.64,24.67-5.35c-3.71-2.31-8.06-3.7-12.76-3.7
		C47.71,31.12,40.54,32.31,32.91,34.37"/>
	<path class="st3" d="M111.72,33.61c0.91,0.36,1.7,0.83,2.38,1.43c0.68,0.6,1.23,1.27,1.65,2.01c0.42,0.75,0.73,1.53,0.95,2.37
		c0.21,0.84,0.32,1.7,0.32,2.57c0,1.52-0.3,2.91-0.9,4.16c-0.6,1.26-1.41,2.34-2.43,3.25c-1.02,0.9-2.22,1.59-3.6,2.08
		c-1.38,0.48-2.86,0.73-4.45,0.73H93.79c-1.04,0-1.75-0.22-2.14-0.66c-0.39-0.43-0.58-1.13-0.58-2.11V21.01
		c0-0.93,0.19-1.63,0.58-2.09c0.39-0.45,1.1-0.68,2.14-0.68l11.28-0.04c1.49,0,2.88,0.16,4.18,0.48c1.3,0.32,2.4,0.82,3.33,1.5
		c0.92,0.68,1.65,1.55,2.19,2.62c0.54,1.06,0.8,2.34,0.8,3.83c0,1.45-0.37,2.77-1.1,3.95c-0.73,1.18-1.64,2.08-2.74,2.69V33.61z
		 M97,31.43h7.87c0.46,0,0.95-0.06,1.48-0.17c0.54-0.11,1.03-0.32,1.48-0.63c0.45-0.31,0.82-0.73,1.12-1.26
		c0.29-0.53,0.43-1.24,0.43-2.11c0-1.16-0.38-2.08-1.14-2.76c-0.76-0.68-1.79-1.02-3.09-1.02H97V31.43z M110.9,41.6
		c0-1.55-0.5-2.82-1.48-3.8c-0.99-0.99-2.44-1.48-4.35-1.48H97v10.56h8.02c1.17,0,2.12-0.17,2.87-0.51c0.74-0.34,1.34-0.76,1.8-1.28
		c0.45-0.51,0.77-1.09,0.95-1.72C110.81,42.74,110.9,42.15,110.9,41.6"/>
	<path class="st3" d="M139.71,49.45c0,0.78-0.31,1.31-0.92,1.6c-0.71,0.33-1.48,0.6-2.31,0.83c-0.83,0.23-1.68,0.4-2.55,0.53
		c-0.88,0.13-1.74,0.22-2.6,0.27c-0.86,0.05-1.68,0.07-2.45,0.07c-2.14,0-3.91-0.22-5.32-0.66c-1.41-0.43-2.53-1.02-3.35-1.74
		c-0.83-0.73-1.4-1.58-1.73-2.57c-0.32-0.99-0.49-2.03-0.49-3.12c0-1.13,0.19-2.22,0.56-3.27c0.37-1.05,0.98-1.97,1.82-2.76
		c0.84-0.8,1.93-1.43,3.28-1.92c1.34-0.49,2.99-0.73,4.93-0.73h5.44v-0.82c0-0.61-0.06-1.18-0.19-1.69
		c-0.13-0.52-0.38-0.97-0.75-1.36c-0.37-0.39-0.89-0.69-1.53-0.9c-0.65-0.21-1.49-0.32-2.53-0.32c-1.1,0-2.3,0.1-3.59,0.3
		c-1.3,0.19-2.35,0.42-3.16,0.67c-0.36,0.1-0.62,0.12-0.78,0.05c-0.16-0.06-0.28-0.24-0.34-0.53l-0.68-2.76
		c-0.13-0.52,0.02-0.86,0.44-1.02c1.36-0.51,2.85-0.88,4.47-1.09c1.62-0.21,3.14-0.32,4.57-0.32c3.37,0,5.83,0.74,7.41,2.23
		c1.57,1.49,2.36,3.65,2.36,6.49V49.45z M133.98,40.29h-4.67c-0.55,0-1.14,0.03-1.77,0.1c-0.63,0.06-1.23,0.24-1.8,0.53
		c-0.57,0.29-1.04,0.71-1.41,1.26c-0.37,0.55-0.56,1.31-0.56,2.28c0,1.39,0.47,2.36,1.41,2.91c0.94,0.55,2.19,0.82,3.74,0.82
		c0.23,0,0.54,0,0.95-0.02c0.4-0.02,0.84-0.05,1.29-0.12c0.46-0.07,0.93-0.15,1.43-0.25c0.5-0.1,0.96-0.22,1.39-0.39V40.29z"/>
	<path class="st3" d="M152.59,31.04c-0.36,0-0.86,0.01-1.53,0.02c-0.66,0.02-1.44,0.11-2.31,0.27v20.06c0,0.35-0.06,0.58-0.19,0.68
		c-0.13,0.1-0.37,0.15-0.73,0.15h-3.79c-0.32,0-0.56-0.05-0.7-0.15c-0.15-0.1-0.22-0.32-0.22-0.68V30.65c0-1.16,0.21-2.07,0.63-2.71
		c0.42-0.65,1.3-1.08,2.62-1.31c0.32-0.03,0.76-0.08,1.3-0.14c0.55-0.07,1.14-0.12,1.75-0.15c0.62-0.03,1.21-0.07,1.79-0.1
		c0.58-0.03,1.08-0.05,1.51-0.05c2.13,0,3.99,0.23,5.55,0.68c1.57,0.45,2.86,1.17,3.88,2.15c1.02,0.98,1.77,2.27,2.26,3.85
		c0.48,1.58,0.73,3.49,0.73,5.72v12.79c0,0.35-0.06,0.58-0.2,0.68c-0.13,0.1-0.37,0.15-0.72,0.15h-3.81c-0.32,0-0.55-0.05-0.7-0.15
		c-0.14-0.1-0.22-0.32-0.22-0.68V38.5c0-1.26-0.1-2.36-0.31-3.3c-0.21-0.94-0.58-1.72-1.1-2.33c-0.52-0.62-1.22-1.07-2.11-1.38
		C155.08,31.19,153.95,31.04,152.59,31.04"/>
	<path class="st3" d="M179.71,47.8c1.04,0,2.08-0.13,3.11-0.39c1.04-0.26,1.89-0.55,2.58-0.87c0.36-0.16,0.61-0.21,0.75-0.15
		c0.15,0.07,0.27,0.23,0.36,0.48l1.21,2.81c0.33,0.52,0.23,0.92-0.29,1.21c-1.33,0.74-2.76,1.24-4.3,1.48
		c-1.54,0.24-2.97,0.36-4.3,0.36c-3.63,0-6.41-1.1-8.33-3.3s-2.89-5.46-2.89-9.79c0-2.04,0.28-3.89,0.83-5.55
		c0.55-1.66,1.34-3.09,2.36-4.27c1.02-1.18,2.25-2.08,3.69-2.71c1.44-0.63,3.06-0.95,4.88-0.95c1.33,0,2.62,0.14,3.86,0.41
		c1.25,0.27,2.42,0.7,3.52,1.28c0.29,0.17,0.47,0.33,0.54,0.49c0.06,0.16,0.01,0.4-0.15,0.72l-1.22,2.86
		c-0.13,0.27-0.27,0.42-0.41,0.49c-0.15,0.06-0.41,0.02-0.8-0.14c-0.78-0.29-1.59-0.54-2.43-0.75c-0.84-0.21-1.73-0.31-2.67-0.31
		c-1.1,0-2.05,0.24-2.84,0.7c-0.8,0.47-1.44,1.09-1.95,1.86c-0.5,0.77-0.86,1.67-1.09,2.69c-0.23,1.02-0.34,2.08-0.34,3.17
		c0,1.13,0.1,2.19,0.29,3.17c0.2,0.99,0.52,1.85,1,2.59c0.47,0.74,1.11,1.33,1.92,1.75C177.41,47.6,178.45,47.8,179.71,47.8"/>
	<path class="st3" d="M212.22,39.37c0,4.3-1,7.6-2.99,9.91c-1.99,2.31-4.96,3.47-8.92,3.47c-3.92,0-6.85-1.12-8.77-3.37
		c-1.93-2.24-2.89-5.53-2.89-9.86c0-2.13,0.29-4.02,0.88-5.67c0.58-1.65,1.39-3.04,2.43-4.17c1.04-1.13,2.27-1.99,3.72-2.59
		c1.44-0.6,3.04-0.9,4.79-0.9c3.85,0,6.78,1.17,8.77,3.51C211.23,32.05,212.22,35.27,212.22,39.37 M206.44,39.52
		c0-1.17-0.09-2.27-0.27-3.31c-0.18-1.04-0.48-1.96-0.92-2.75c-0.44-0.8-1.04-1.42-1.8-1.88c-0.76-0.46-1.72-0.68-2.89-0.68
		c-1.04,0-1.94,0.22-2.72,0.66c-0.78,0.44-1.43,1.03-1.94,1.78c-0.52,0.75-0.9,1.64-1.14,2.68c-0.24,1.04-0.36,2.16-0.36,3.36
		c0,2.7,0.44,4.82,1.31,6.36c0.87,1.54,2.43,2.31,4.67,2.31c1.13,0,2.09-0.24,2.86-0.71c0.78-0.47,1.4-1.09,1.87-1.87
		c0.47-0.78,0.81-1.68,1.02-2.71C206.33,41.74,206.44,40.66,206.44,39.52"/>
	<path class="st4" d="M263.46,50.35c0,0.77-0.32,1.31-0.95,1.6c-0.71,0.32-1.49,0.61-2.3,0.83c-0.85,0.23-1.7,0.41-2.58,0.53
		c-0.88,0.13-1.75,0.22-2.61,0.27c-0.88,0.06-1.7,0.07-2.48,0.07c-2.16,0-3.95-0.21-5.36-0.65c-1.43-0.44-2.56-1.03-3.39-1.76
		c-0.82-0.74-1.41-1.6-1.73-2.6c-0.32-0.99-0.5-2.04-0.5-3.14c0-1.16,0.2-2.24,0.58-3.3c0.36-1.05,0.98-2,1.83-2.8
		c0.88-0.78,1.95-1.43,3.31-1.92c1.37-0.5,3.02-0.74,4.96-0.74h5.5v-0.82c0-0.61-0.07-1.19-0.2-1.72c-0.14-0.51-0.39-0.96-0.76-1.37
		c-0.38-0.37-0.89-0.68-1.53-0.88c-0.67-0.22-1.51-0.34-2.56-0.34c-1.11,0-2.32,0.1-3.63,0.32c-1.32,0.17-2.36,0.4-3.2,0.67
		c-0.34,0.09-0.61,0.11-0.76,0.05c-0.16-0.06-0.26-0.25-0.34-0.55l-0.68-2.78c-0.14-0.53,0-0.86,0.43-1.02
		c1.35-0.5,2.87-0.89,4.51-1.11c1.63-0.2,3.16-0.31,4.6-0.31c3.4,0,5.88,0.75,7.47,2.24c1.59,1.5,2.38,3.69,2.38,6.56V50.35z
		 M257.67,41.1h-4.7c-0.56,0-1.15,0.03-1.78,0.1c-0.66,0.06-1.25,0.24-1.83,0.53c-0.56,0.32-1.04,0.71-1.42,1.28
		c-0.36,0.56-0.56,1.33-0.56,2.29c0,1.41,0.48,2.38,1.42,2.94c0.95,0.56,2.21,0.85,3.77,0.85c0.22,0,0.55-0.02,0.96-0.05
		c0.41-0.02,0.85-0.05,1.29-0.12c0.46-0.07,0.94-0.14,1.44-0.24c0.51-0.1,0.99-0.22,1.4-0.39V41.1z"/>
	<path class="st4" d="M300.03,50.35c0,0.77-0.3,1.31-0.94,1.6c-0.71,0.32-1.5,0.61-2.31,0.83c-0.84,0.23-1.69,0.41-2.58,0.53
		c-0.89,0.13-1.75,0.22-2.62,0.27c-0.87,0.06-1.68,0.07-2.47,0.07c-2.17,0-3.95-0.21-5.37-0.65c-1.43-0.44-2.55-1.03-3.39-1.76
		c-0.83-0.74-1.41-1.6-1.74-2.6c-0.33-0.99-0.5-2.04-0.5-3.14c0-1.16,0.2-2.24,0.58-3.3c0.38-1.05,0.97-2,1.83-2.8
		c0.86-0.78,1.96-1.43,3.3-1.92c1.37-0.5,3.02-0.74,4.97-0.74h5.5v-0.82c0-0.61-0.06-1.19-0.2-1.72c-0.13-0.51-0.37-0.96-0.74-1.37
		c-0.38-0.37-0.91-0.68-1.56-0.88c-0.65-0.22-1.51-0.34-2.54-0.34c-1.11,0-2.32,0.1-3.63,0.32c-1.31,0.17-2.37,0.4-3.18,0.67
		c-0.35,0.09-0.62,0.11-0.77,0.05c-0.17-0.06-0.29-0.25-0.36-0.55l-0.68-2.78c-0.14-0.53,0.02-0.86,0.44-1.02
		c1.37-0.5,2.88-0.89,4.51-1.11c1.63-0.2,3.17-0.31,4.61-0.31c3.4,0,5.89,0.75,7.47,2.24c1.58,1.5,2.38,3.69,2.38,6.56V50.35z
		 M294.26,41.1h-4.7c-0.56,0-1.16,0.03-1.79,0.1c-0.64,0.06-1.24,0.24-1.81,0.53c-0.57,0.32-1.05,0.71-1.42,1.28
		c-0.39,0.56-0.56,1.33-0.56,2.29c0,1.41,0.46,2.38,1.42,2.94c0.94,0.56,2.19,0.85,3.77,0.85c0.23,0,0.53-0.02,0.95-0.05
		c0.39-0.02,0.84-0.05,1.3-0.12c0.46-0.07,0.93-0.14,1.44-0.24c0.51-0.1,0.97-0.22,1.4-0.39V41.1z"/>
	<path class="st4" d="M339.99,26.88c3.75,0,6.55,0.97,8.36,2.89c1.8,1.93,2.71,4.56,2.71,7.91c0,0.85-0.09,1.55-0.29,2.12
		c-0.2,0.53-0.48,0.96-0.84,1.31c-0.35,0.33-0.78,0.57-1.24,0.68c-0.48,0.13-0.99,0.2-1.55,0.2h-13.02c0.03,1.29,0.21,2.33,0.58,3.2
		c0.36,0.86,0.85,1.56,1.46,2.1c0.63,0.53,1.34,0.92,2.15,1.15c0.83,0.22,1.72,0.34,2.67,0.34c1.03,0,2.07-0.13,3.08-0.39
		c1-0.25,1.9-0.57,2.64-0.93c0.52-0.21,0.88-0.14,1.09,0.3l1.33,2.77c0.23,0.54,0.1,0.91-0.34,1.14c-1.24,0.76-2.59,1.27-4.08,1.56
		c-1.47,0.3-2.87,0.44-4.22,0.44c-3.96,0-6.98-1.06-9.06-3.18c-2.09-2.1-3.15-5.46-3.15-10.06c0-2.16,0.3-4.07,0.89-5.74
		c0.58-1.69,1.39-3.11,2.41-4.25c1.05-1.16,2.27-2.04,3.71-2.62C336.72,27.18,338.3,26.88,339.99,26.88 M340.09,31.61
		c-0.88,0-1.66,0.17-2.35,0.52c-0.7,0.36-1.29,0.83-1.76,1.39c-0.49,0.61-0.89,1.26-1.19,2.01c-0.29,0.74-0.46,1.52-0.48,2.34h11.27
		c0-0.88-0.08-1.69-0.25-2.44c-0.16-0.74-0.43-1.4-0.85-1.97c-0.41-0.57-0.96-1.03-1.65-1.36C342.1,31.78,341.2,31.61,340.09,31.61"
		/>
	<path class="st4" d="M398.97,50.35c0,0.77-0.32,1.31-0.94,1.6c-0.7,0.32-1.47,0.61-2.31,0.83c-0.85,0.23-1.7,0.41-2.57,0.53
		c-0.89,0.13-1.77,0.22-2.61,0.27c-0.88,0.06-1.69,0.07-2.49,0.07c-2.15,0-3.93-0.21-5.37-0.65c-1.41-0.44-2.53-1.03-3.38-1.76
		c-0.82-0.74-1.4-1.6-1.74-2.6c-0.33-0.99-0.49-2.04-0.49-3.14c0-1.16,0.19-2.24,0.57-3.3c0.36-1.05,0.99-2,1.84-2.8
		c0.83-0.78,1.95-1.43,3.3-1.92c1.36-0.5,3.02-0.74,4.98-0.74h5.49v-0.82c0-0.61-0.05-1.19-0.2-1.72c-0.13-0.51-0.4-0.96-0.76-1.37
		c-0.38-0.37-0.89-0.68-1.55-0.88c-0.65-0.22-1.5-0.34-2.55-0.34c-1.11,0-2.33,0.1-3.64,0.32c-1.29,0.17-2.35,0.4-3.17,0.67
		c-0.36,0.09-0.63,0.11-0.79,0.05c-0.17-0.06-0.29-0.25-0.34-0.55l-0.69-2.78c-0.13-0.53,0.02-0.86,0.45-1.02
		c1.37-0.5,2.87-0.89,4.49-1.11c1.65-0.2,3.18-0.31,4.61-0.31c3.4,0,5.9,0.75,7.48,2.24c1.57,1.5,2.37,3.69,2.37,6.56V50.35z
		 M393.18,41.1h-4.71c-0.55,0-1.14,0.03-1.78,0.1c-0.63,0.06-1.24,0.24-1.82,0.53c-0.57,0.32-1.04,0.71-1.42,1.28
		c-0.36,0.56-0.56,1.33-0.56,2.29c0,1.41,0.49,2.38,1.42,2.94c0.95,0.56,2.21,0.85,3.78,0.85c0.24,0,0.54-0.02,0.95-0.05
		c0.42-0.02,0.84-0.05,1.3-0.12c0.46-0.07,0.94-0.14,1.44-0.24c0.51-0.1,0.98-0.22,1.4-0.39V41.1z"/>
	<path class="st4" d="M242.55,19.13c-0.11-0.19-0.4-0.26-0.86-0.26h-13.78c-1.65,0-3.05,0.24-4.16,0.73
		c-1.11,0.48-2.02,1.13-2.69,1.94c-0.7,0.83-1.18,1.76-1.46,2.82c-0.27,1.05-0.41,2.15-0.41,3.3v24.42c0,0.42,0.09,0.7,0.29,0.83
		c0.2,0.13,0.48,0.2,0.85,0.2h1.55c1.06-0.07,3.29-0.61,3.29-3.8V38.07h14.7c0.45,0,0.71-0.1,0.81-0.3c0.13-0.2,0.18-0.47,0.18-0.83
		v-2.77c0-0.48-0.05-0.76-0.18-0.9c-0.11-0.15-0.36-0.24-0.81-0.24h-14.7v-5.7c0-1.04,0.25-1.84,0.78-2.38
		c0.49-0.54,1.37-0.8,2.61-0.8h13.13c0.43,0,0.71-0.09,0.84-0.26c0.14-0.14,0.21-0.44,0.21-0.88v-3.02
		C242.74,19.6,242.66,19.31,242.55,19.13"/>
	<path class="st4" d="M325.62,34.78c-0.44-1.62-1.1-3.02-2.01-4.18c-0.9-1.17-2.05-2.09-3.48-2.73c-1.42-0.68-3.1-0.99-5.06-0.99
		c-0.9,0-1.9,0.07-3.02,0.21c-1.14,0.15-2.17,0.38-3.12,0.66l-0.04-9.47c0-0.4-0.06-0.63-0.19-0.73c-0.13-0.11-0.37-0.14-0.73-0.14
		h-1.54c-1.09,0.08-3.16,0.64-3.22,3.68v29.65c0,0.28,0.05,0.52,0.15,0.71c0.09,0.17,0.3,0.32,0.57,0.44
		c1.48,0.68,3.08,1.12,4.83,1.37c1.76,0.28,3.46,0.41,5.14,0.41c2.14,0,4.01-0.34,5.6-1.02c1.54-0.69,2.83-1.64,3.86-2.87
		c1.01-1.22,1.76-2.65,2.23-4.33c0.48-1.66,0.7-3.46,0.7-5.41C326.27,38.14,326.06,36.38,325.62,34.78 M319.91,44.22
		c-0.33,1.08-0.8,1.97-1.37,2.65c-0.61,0.68-1.31,1.17-2.15,1.48c-0.83,0.31-1.78,0.46-2.79,0.46c-0.66,0-1.42-0.03-2.27-0.12
		c-0.85-0.07-1.65-0.24-2.46-0.51V32.54c1.05-0.32,2.04-0.53,3-0.62c0.97-0.11,1.7-0.17,2.22-0.17c1.97,0,3.51,0.7,4.64,2.12
		c1.11,1.39,1.66,3.53,1.66,6.39C320.39,41.83,320.24,43.15,319.91,44.22"/>
	<path class="st4" d="M363.68,51.95l-0.34-2.74c-0.03-0.27-0.1-0.42-0.22-0.52c-0.11-0.07-0.3-0.09-0.57-0.06
		c-0.22,0.02-0.51,0.06-0.85,0.09c-0.34,0.04-0.65,0.05-0.9,0.05c-0.65,0-1.1-0.15-1.32-0.47c-0.23-0.3-0.33-0.88-0.33-1.74V18.23
		c0-0.36-0.08-0.59-0.23-0.69c-0.14-0.11-0.41-0.14-0.76-0.14h-1.58c-1.07,0.08-3.12,0.64-3.24,3.55v26.99
		c0,2.11,0.43,3.59,1.29,4.44c0.85,0.86,2.18,1.27,4.03,1.27c0.65,0,1.38-0.05,2.22-0.12c0.83-0.09,1.58-0.25,2.23-0.52
		c0.33-0.16,0.53-0.31,0.58-0.42C363.75,52.49,363.75,52.27,363.68,51.95"/>
	<path class="st4" d="M376.24,51.95l-0.34-2.74c-0.04-0.27-0.1-0.42-0.22-0.52c-0.1-0.07-0.31-0.09-0.56-0.06
		c-0.23,0.02-0.52,0.06-0.86,0.09c-0.33,0.04-0.65,0.05-0.9,0.05c-0.65,0-1.09-0.15-1.33-0.47c-0.23-0.3-0.33-0.88-0.33-1.74V18.23
		c0-0.36-0.09-0.59-0.23-0.69c-0.14-0.11-0.4-0.14-0.77-0.14h-1.57c-1.1,0.08-3.2,0.66-3.24,3.73v26.81c0,2.11,0.43,3.59,1.28,4.44
		c0.84,0.86,2.19,1.27,4.02,1.27c0.66,0,1.39-0.05,2.24-0.12c0.81-0.09,1.56-0.25,2.23-0.52c0.33-0.16,0.51-0.31,0.57-0.42
		C376.31,52.49,376.31,52.27,376.24,51.95"/>
	<path class="st4" d="M277.4,51.95l-0.34-2.74c-0.04-0.27-0.11-0.42-0.22-0.52c-0.11-0.07-0.31-0.09-0.58-0.06
		c-0.22,0.02-0.52,0.06-0.86,0.09c-0.35,0.04-0.65,0.05-0.9,0.05c-0.64,0-1.09-0.15-1.32-0.47c-0.24-0.3-0.36-0.88-0.36-1.74V18.23
		c0-0.36-0.06-0.59-0.21-0.69c-0.16-0.11-0.39-0.14-0.76-0.14h-1.59c-1.08,0.08-3.21,0.66-3.22,3.78v26.76
		c0,2.11,0.42,3.59,1.28,4.44c0.84,0.86,2.17,1.27,4.02,1.27c0.64,0,1.39-0.05,2.23-0.12c0.81-0.09,1.57-0.25,2.22-0.52
		c0.33-0.16,0.52-0.31,0.59-0.42C277.46,52.49,277.46,52.27,277.4,51.95"/>
</g>
</svg>
